<svg width="39" height="24" viewBox="0 0 39 24" fill="none" xmlns="http://www.w3.org/2000/svg">
<path d="M18.0347 12.0198H18.3222C18.7592 11.1706 19.2523 10.3555 19.8558 9.62578H18.0347C17.3733 9.62578 16.8378 9.09025 16.8378 8.42878C16.8378 7.76731 17.3733 7.23178 18.0347 7.23178H20.4287C20.9191 7.23178 21.3377 7.5276 21.5229 7.94936C23.8162 6.01203 26.7744 4.83779 30.0047 4.83779H27.6107C26.9493 4.83779 26.4137 4.30226 26.4137 3.64079C26.4137 2.97933 26.9493 2.4438 27.6107 2.4438H30.0047C30.6662 2.4438 31.2017 2.97933 31.2017 3.64079C31.2017 4.30226 30.6662 4.83779 30.0047 4.83779C33.1852 4.83779 36.1057 5.97182 38.3837 7.85584V0.0498047H0V22.7927C0 23.4542 0.535531 23.9897 1.197 23.9897H18.2913C17.3689 22.1917 16.8378 20.1606 16.8378 18.0048C16.8378 16.6871 17.074 15.4315 17.4359 14.2305C17.0846 14.0219 16.8378 13.6554 16.8378 13.2168C16.8378 12.5553 17.3733 12.0198 18.0347 12.0198ZM18.0347 2.4438H20.4287C21.0902 2.4438 21.6257 2.97933 21.6257 3.64079C21.6257 4.30226 21.0902 4.83779 20.4287 4.83779H18.0347C17.3733 4.83779 16.8378 4.30226 16.8378 3.64079C16.8378 2.97933 17.3733 2.4438 18.0347 2.4438ZM10.8528 19.2017H8.45878C7.79731 19.2017 7.26178 18.6662 7.26178 18.0048C7.26178 17.3433 7.79731 16.8078 8.45878 16.8078H10.8528C11.5142 16.8078 12.0498 17.3433 12.0498 18.0048C12.0498 18.6662 11.5142 19.2017 10.8528 19.2017ZM10.8528 14.4138H8.45878C7.79731 14.4138 7.26178 13.8782 7.26178 13.2168C7.26178 12.5553 7.79731 12.0198 8.45878 12.0198H10.8528C11.5142 12.0198 12.0498 12.5553 12.0498 13.2168C12.0498 13.8782 11.5142 14.4138 10.8528 14.4138ZM10.8528 9.62578H8.45878C7.79731 9.62578 7.26178 9.09025 7.26178 8.42878C7.26178 7.76731 7.79731 7.23178 8.45878 7.23178H10.8528C11.5142 7.23178 12.0498 7.76731 12.0498 8.42878C12.0498 9.09025 11.5142 9.62578 10.8528 9.62578ZM10.8528 4.83779H8.45878C7.79731 4.83779 7.26178 4.30226 7.26178 3.64079C7.26178 2.97933 7.79731 2.4438 8.45878 2.4438H10.8528C11.5142 2.4438 12.0498 2.97933 12.0498 3.64079C12.0498 4.30226 11.5142 4.83779 10.8528 4.83779Z" fill="white"/>
</svg>
